<svg xmlns="http://www.w3.org/2000/svg" width="1200" height="620" viewBox="0 0 1200 620">
<rect width="1200" height="620" fill="white"/>
<g font-family="Arial, sans-serif" fill="#111">
<text x="600" y="42" text-anchor="middle" font-size="28" font-weight="700">TriadFlux R9 — Regime-Adaptive Trading Engine</text>
<rect x="430" y="75" width="340" height="70" rx="14" fill="#eef" stroke="#333" stroke-width="2"/>
<text x="600" y="105" text-anchor="middle" font-size="20" font-weight="700">Live OHLCV / rToken Feed</text><text x="600" y="130" text-anchor="middle" font-size="14">price • volume • volatility</text>
<path d="M600 145 V190" stroke="#333" stroke-width="3" marker-end="url(#a)"/>
<rect x="350" y="190" width="500" height="90" rx="14" fill="#efe" stroke="#333" stroke-width="2"/>
<text x="600" y="223" text-anchor="middle" font-size="20" font-weight="700">Regime Engine</text><text x="600" y="250" text-anchor="middle" font-size="15">TRENDING • RANGING • VOLATILE + confidence</text>
<path d="M430 280 L200 345 M600 280 V345 M770 280 L1000 345" stroke="#333" stroke-width="3" fill="none"/>
<rect x="65" y="345" width="270" height="90" rx="14" fill="#ffe" stroke="#333" stroke-width="2"/>
<text x="200" y="378" text-anchor="middle" font-size="18" font-weight="700">Momentum Breakout</text><text x="200" y="404" text-anchor="middle" font-size="14">Donchian + volume + ATR</text>
<rect x="465" y="345" width="270" height="90" rx="14" fill="#ffe" stroke="#333" stroke-width="2"/>
<text x="600" y="378" text-anchor="middle" font-size="18" font-weight="700">Mean-Reversion Fade</text><text x="600" y="404" text-anchor="middle" font-size="14">z-score + RSI + ATR</text>
<rect x="865" y="345" width="270" height="90" rx="14" fill="#ffe" stroke="#333" stroke-width="2"/>
<text x="1000" y="378" text-anchor="middle" font-size="18" font-weight="700">Trend Following</text><text x="1000" y="404" text-anchor="middle" font-size="14">EMA spread + ADX + ATR</text>
<path d="M200 435 L400 495 M600 435 V495 M1000 435 L800 495" stroke="#333" stroke-width="3" fill="none"/>
<rect x="350" y="495" width="500" height="70" rx="14" fill="#fef0e6" stroke="#333" stroke-width="2"/>
<text x="600" y="525" text-anchor="middle" font-size="18" font-weight="700">Regime Scorecard + Risk Gate</text><text x="600" y="548" text-anchor="middle" font-size="14">learns which strategy works in the current regime</text>
<defs><marker id="a" markerWidth="10" markerHeight="10" refX="9" refY="3" orient="auto"><path d="M0,0 L0,6 L9,3 z" fill="#333"/></marker></defs>
</g></svg>
